<?xml version="1.0" standalone="no"?>
<!DOCTYPE svg PUBLIC "-//W3C//DTD SVG 20010904//EN"
 "http://www.w3.org/TR/2001/REC-SVG-20010904/DTD/svg10.dtd">
<svg version="1.0" xmlns="http://www.w3.org/2000/svg"
 width="920.000000pt" height="920.000000pt" viewBox="0 0 920.000000 920.000000"
 preserveAspectRatio="xMidYMid meet">
<metadata>
Created by potrace 1.14, written by Peter Selinger 2001-2017
</metadata>
<g transform="translate(0.000000,920.000000) scale(0.100000,-0.100000)"
fill="#000000" stroke="none">
<path d="M4675 9188 c-119 -13 -277 -51 -390 -93 -609 -228 -1036 -753 -1131
-1390 -22 -147 -14 -446 15 -587 107 -519 440 -960 911 -1206 176 -92 464
-182 584 -182 19 0 37 -4 40 -8 3 -5 -5 -7 -17 -6 -12 1 -645 3 -1407 4 -762
1 -1378 4 -1370 5 8 2 49 9 90 15 41 7 122 28 180 47 485 162 847 581 936
1083 22 124 23 354 1 476 -104 582 -572 1044 -1155 1140 -145 24 -402 14 -538
-20 -265 -66 -471 -183 -665 -376 -253 -253 -391 -562 -406 -916 -11 -255 31
-454 142 -679 77 -156 161 -270 287 -391 158 -150 323 -249 529 -318 106 -36
249 -65 323 -67 40 -1 39 -1 -19 -14 -230 -51 -404 -187 -501 -390 -69 -144
-65 -31 -62 -1716 l3 -1524 28 -73 c70 -182 190 -317 351 -396 141 -69 140
-69 667 -73 l476 -4 -364 -607 c-201 -334 -389 -646 -419 -695 l-54 -87 352 2
353 3 515 644 c284 355 520 645 525 644 5 0 241 -290 525 -644 l516 -644 348
-3 c278 -2 347 0 343 10 -2 7 -189 320 -415 696 l-410 682 608 0 c689 0 724 3
864 69 156 73 266 180 336 326 75 157 70 40 70 1701 0 1662 5 1547 -72 1704
-34 69 -58 102 -132 175 -185 184 -309 219 -763 213 -243 -3 -312 3 -180 15
151 14 391 91 557 179 475 251 796 680 912 1218 19 91 22 134 22 325 0 201 -2
231 -27 346 -35 165 -74 275 -152 434 -88 176 -175 296 -330 450 -154 154
-272 241 -450 330 -308 154 -638 212 -980 173z m386 -703 c339 -59 614 -271
764 -588 73 -152 90 -240 89 -447 0 -146 -4 -188 -22 -252 -84 -305 -280 -544
-557 -678 -398 -194 -878 -116 -1188 192 -207 206 -311 459 -310 753 1 284 97
517 296 722 163 168 361 268 607 306 63 10 245 6 321 -8z m-3153 -701 c235
-49 441 -250 508 -494 24 -89 24 -271 0 -360 -125 -460 -660 -662 -1060 -400
-124 81 -213 195 -269 344 -30 77 -31 88 -31 231 -1 138 1 156 26 226 55 155
146 273 276 359 161 106 343 137 550 94z"/>
<path d="M7489 5191 l-864 -518 0 -1049 0 -1048 863 -518 c475 -285 867 -518
870 -518 8 0 7 4158 0 4166 -3 2 -394 -229 -869 -515z"/>
</g>
</svg>
